<mxfile host="app.diagrams.net" modified="2023-11-13T17:10:03.598Z" agent="Mozilla/5.0 (X11; Linux x86_64; rv:109.0) Gecko/20100101 Firefox/119.0" etag="hv2mlcjFqMmM5Gexm0eM" version="22.1.0" type="github">
  <diagram name="Page-1" id="wWv0QKPpNUzA6Ld12Msu">
    <mxGraphModel dx="988" dy="528" grid="1" gridSize="10" guides="1" tooltips="1" connect="1" arrows="1" fold="1" page="1" pageScale="1" pageWidth="850" pageHeight="1100" math="0" shadow="0">
      <root>
        <mxCell id="0" />
        <mxCell id="1" parent="0" />
        <mxCell id="GtoTZNwH6GSO2kxzhmJJ-5" value="Mājaslapa" style="shape=umlFrame;whiteSpace=wrap;html=1;pointerEvents=0;recursiveResize=0;container=1;collapsible=0;width=160;" vertex="1" parent="1">
          <mxGeometry x="170" y="130" width="670" height="630" as="geometry" />
        </mxCell>
        <mxCell id="GtoTZNwH6GSO2kxzhmJJ-7" value="Pārvaldīt kāršu komplektus" style="ellipse;whiteSpace=wrap;html=1;" vertex="1" parent="GtoTZNwH6GSO2kxzhmJJ-5">
          <mxGeometry x="10" y="40" width="140" height="50" as="geometry" />
        </mxCell>
        <mxCell id="GtoTZNwH6GSO2kxzhmJJ-8" value="Izveidot kāršu komplektu" style="ellipse;whiteSpace=wrap;html=1;" vertex="1" parent="GtoTZNwH6GSO2kxzhmJJ-5">
          <mxGeometry x="10" y="100" width="140" height="50" as="geometry" />
        </mxCell>
        <mxCell id="GtoTZNwH6GSO2kxzhmJJ-9" value="Iegādāties kāršu komplektu" style="ellipse;whiteSpace=wrap;html=1;" vertex="1" parent="GtoTZNwH6GSO2kxzhmJJ-5">
          <mxGeometry x="10" y="160" width="140" height="50" as="geometry" />
        </mxCell>
        <mxCell id="GtoTZNwH6GSO2kxzhmJJ-10" value="Izveidot jaunu spēli" style="ellipse;whiteSpace=wrap;html=1;" vertex="1" parent="GtoTZNwH6GSO2kxzhmJJ-5">
          <mxGeometry x="10" y="220" width="140" height="50" as="geometry" />
        </mxCell>
        <mxCell id="GtoTZNwH6GSO2kxzhmJJ-19" value="Spēle" style="shape=umlFrame;whiteSpace=wrap;html=1;pointerEvents=0;recursiveResize=0;container=1;collapsible=0;width=160;" vertex="1" parent="GtoTZNwH6GSO2kxzhmJJ-5">
          <mxGeometry x="15" y="280" width="265" height="340" as="geometry" />
        </mxCell>
        <mxCell id="GtoTZNwH6GSO2kxzhmJJ-25" value="Izpēlēt jautājuma kārti" style="ellipse;whiteSpace=wrap;html=1;" vertex="1" parent="GtoTZNwH6GSO2kxzhmJJ-19">
          <mxGeometry x="15" y="40" width="140" height="50" as="geometry" />
        </mxCell>
        <mxCell id="GtoTZNwH6GSO2kxzhmJJ-26" value="Pārskatīt spēles rezultātu" style="ellipse;whiteSpace=wrap;html=1;" vertex="1" parent="GtoTZNwH6GSO2kxzhmJJ-19">
          <mxGeometry x="15" y="100" width="140" height="50" as="geometry" />
        </mxCell>
        <mxCell id="GtoTZNwH6GSO2kxzhmJJ-27" value="Redzēt dalībniekus" style="ellipse;whiteSpace=wrap;html=1;" vertex="1" parent="GtoTZNwH6GSO2kxzhmJJ-19">
          <mxGeometry x="15" y="160" width="140" height="50" as="geometry" />
        </mxCell>
        <mxCell id="GtoTZNwH6GSO2kxzhmJJ-28" value="Pievienoties spēlei" style="ellipse;whiteSpace=wrap;html=1;" vertex="1" parent="GtoTZNwH6GSO2kxzhmJJ-19">
          <mxGeometry x="15" y="220" width="140" height="50" as="geometry" />
        </mxCell>
        <mxCell id="GtoTZNwH6GSO2kxzhmJJ-29" value="Izspēlēt atbilžu kārti" style="ellipse;whiteSpace=wrap;html=1;" vertex="1" parent="GtoTZNwH6GSO2kxzhmJJ-19">
          <mxGeometry x="15" y="280" width="140" height="50" as="geometry" />
        </mxCell>
        <mxCell id="GtoTZNwH6GSO2kxzhmJJ-12" style="rounded=0;orthogonalLoop=1;jettySize=auto;html=1;entryX=0;entryY=0.5;entryDx=0;entryDy=0;" edge="1" parent="1" source="GtoTZNwH6GSO2kxzhmJJ-6" target="GtoTZNwH6GSO2kxzhmJJ-7">
          <mxGeometry relative="1" as="geometry" />
        </mxCell>
        <mxCell id="GtoTZNwH6GSO2kxzhmJJ-13" style="edgeStyle=none;shape=connector;rounded=0;orthogonalLoop=1;jettySize=auto;html=1;entryX=0;entryY=0.5;entryDx=0;entryDy=0;labelBackgroundColor=default;strokeColor=default;align=center;verticalAlign=middle;fontFamily=Helvetica;fontSize=11;fontColor=default;endArrow=classic;" edge="1" parent="1" source="GtoTZNwH6GSO2kxzhmJJ-6" target="GtoTZNwH6GSO2kxzhmJJ-8">
          <mxGeometry relative="1" as="geometry" />
        </mxCell>
        <mxCell id="GtoTZNwH6GSO2kxzhmJJ-14" style="edgeStyle=none;shape=connector;rounded=0;orthogonalLoop=1;jettySize=auto;html=1;entryX=0;entryY=0.5;entryDx=0;entryDy=0;labelBackgroundColor=default;strokeColor=default;align=center;verticalAlign=middle;fontFamily=Helvetica;fontSize=11;fontColor=default;endArrow=classic;" edge="1" parent="1" source="GtoTZNwH6GSO2kxzhmJJ-6" target="GtoTZNwH6GSO2kxzhmJJ-9">
          <mxGeometry relative="1" as="geometry" />
        </mxCell>
        <mxCell id="GtoTZNwH6GSO2kxzhmJJ-15" style="edgeStyle=none;shape=connector;rounded=0;orthogonalLoop=1;jettySize=auto;html=1;entryX=0;entryY=0.5;entryDx=0;entryDy=0;labelBackgroundColor=default;strokeColor=default;align=center;verticalAlign=middle;fontFamily=Helvetica;fontSize=11;fontColor=default;endArrow=classic;" edge="1" parent="1" source="GtoTZNwH6GSO2kxzhmJJ-6" target="GtoTZNwH6GSO2kxzhmJJ-10">
          <mxGeometry relative="1" as="geometry" />
        </mxCell>
        <mxCell id="GtoTZNwH6GSO2kxzhmJJ-6" value="Spēlētājs" style="shape=umlActor;verticalLabelPosition=bottom;verticalAlign=top;html=1;" vertex="1" parent="1">
          <mxGeometry x="30" y="250" width="30" height="60" as="geometry" />
        </mxCell>
        <mxCell id="GtoTZNwH6GSO2kxzhmJJ-30" style="edgeStyle=none;shape=connector;rounded=0;orthogonalLoop=1;jettySize=auto;html=1;entryX=0;entryY=0.5;entryDx=0;entryDy=0;labelBackgroundColor=default;strokeColor=default;align=center;verticalAlign=middle;fontFamily=Helvetica;fontSize=11;fontColor=default;endArrow=classic;" edge="1" parent="1" source="GtoTZNwH6GSO2kxzhmJJ-16" target="GtoTZNwH6GSO2kxzhmJJ-25">
          <mxGeometry relative="1" as="geometry" />
        </mxCell>
        <mxCell id="GtoTZNwH6GSO2kxzhmJJ-31" style="edgeStyle=none;shape=connector;rounded=0;orthogonalLoop=1;jettySize=auto;html=1;entryX=0;entryY=0.5;entryDx=0;entryDy=0;labelBackgroundColor=default;strokeColor=default;align=center;verticalAlign=middle;fontFamily=Helvetica;fontSize=11;fontColor=default;endArrow=classic;" edge="1" parent="1" source="GtoTZNwH6GSO2kxzhmJJ-16" target="GtoTZNwH6GSO2kxzhmJJ-26">
          <mxGeometry relative="1" as="geometry" />
        </mxCell>
        <mxCell id="GtoTZNwH6GSO2kxzhmJJ-32" style="edgeStyle=none;shape=connector;rounded=0;orthogonalLoop=1;jettySize=auto;html=1;entryX=0;entryY=0.5;entryDx=0;entryDy=0;labelBackgroundColor=default;strokeColor=default;align=center;verticalAlign=middle;fontFamily=Helvetica;fontSize=11;fontColor=default;endArrow=classic;" edge="1" parent="1" source="GtoTZNwH6GSO2kxzhmJJ-16" target="GtoTZNwH6GSO2kxzhmJJ-27">
          <mxGeometry relative="1" as="geometry" />
        </mxCell>
        <mxCell id="GtoTZNwH6GSO2kxzhmJJ-33" style="edgeStyle=none;shape=connector;rounded=0;orthogonalLoop=1;jettySize=auto;html=1;entryX=0;entryY=0.5;entryDx=0;entryDy=0;labelBackgroundColor=default;strokeColor=default;align=center;verticalAlign=middle;fontFamily=Helvetica;fontSize=11;fontColor=default;endArrow=classic;" edge="1" parent="1" source="GtoTZNwH6GSO2kxzhmJJ-16" target="GtoTZNwH6GSO2kxzhmJJ-28">
          <mxGeometry relative="1" as="geometry" />
        </mxCell>
        <mxCell id="GtoTZNwH6GSO2kxzhmJJ-34" style="edgeStyle=none;shape=connector;rounded=0;orthogonalLoop=1;jettySize=auto;html=1;entryX=0;entryY=0.5;entryDx=0;entryDy=0;labelBackgroundColor=default;strokeColor=default;align=center;verticalAlign=middle;fontFamily=Helvetica;fontSize=11;fontColor=default;endArrow=classic;" edge="1" parent="1" source="GtoTZNwH6GSO2kxzhmJJ-16" target="GtoTZNwH6GSO2kxzhmJJ-29">
          <mxGeometry relative="1" as="geometry" />
        </mxCell>
        <mxCell id="GtoTZNwH6GSO2kxzhmJJ-16" value="Viesis" style="shape=umlActor;verticalLabelPosition=bottom;verticalAlign=top;html=1;" vertex="1" parent="1">
          <mxGeometry x="30" y="540" width="30" height="60" as="geometry" />
        </mxCell>
        <mxCell id="GtoTZNwH6GSO2kxzhmJJ-35" value="Spēlētājs" style="shape=umlActor;verticalLabelPosition=bottom;verticalAlign=top;html=1;" vertex="1" parent="1">
          <mxGeometry x="910" y="370" width="30" height="60" as="geometry" />
        </mxCell>
      </root>
    </mxGraphModel>
  </diagram>
</mxfile>
